<svg width="100" height="100" viewBox="0 0 100 100" fill="none" xmlns="http://www.w3.org/2000/svg">
<rect width="100" height="100" fill="black"/>
<path d="M30.2864 58.7727C29.6273 58.7727 29.062 58.5426 28.5904 58.0824C28.1245 57.6165 27.8944 57.0511 27.9001 56.3864C27.8944 55.7386 28.1245 55.1847 28.5904 54.7244C29.062 54.2642 29.6273 54.0341 30.2864 54.0341C30.9114 54.0341 31.4626 54.2642 31.9398 54.7244C32.4228 55.1847 32.6671 55.7386 32.6728 56.3864C32.6671 56.8295 32.5506 57.233 32.3234 57.5966C32.1018 57.9545 31.812 58.2415 31.4541 58.4574C31.0961 58.6676 30.7069 58.7727 30.2864 58.7727ZM35.6376 45.4091H40.3422V58.9432C40.3422 60.0909 40.1007 60.9886 39.6177 61.6364C39.1405 62.2841 38.47 62.7415 37.6064 63.0085C36.7427 63.2756 35.7342 63.4091 34.5808 63.4091C34.4103 63.4091 34.2541 63.4063 34.1121 63.4006C33.9643 63.3949 33.8024 63.3864 33.6263 63.375V59.8977C33.7399 59.9091 33.8393 59.9176 33.9246 59.9233C34.0041 59.929 34.0865 59.9318 34.1717 59.9318C34.7342 59.9318 35.1177 59.8438 35.3223 59.6676C35.5325 59.4972 35.6376 59.2216 35.6376 58.8409V45.4091ZM37.9899 44.0455C37.3535 44.0455 36.8081 43.8352 36.3535 43.4148C35.899 42.9943 35.6717 42.4886 35.6717 41.8977C35.6717 41.3068 35.899 40.8011 36.3535 40.3807C36.8081 39.9602 37.3535 39.75 37.9899 39.75C38.6319 39.75 39.1774 39.9602 39.6263 40.3807C40.0808 40.8011 40.3081 41.3068 40.3081 41.8977C40.3081 42.4886 40.0808 42.9943 39.6263 43.4148C39.1774 43.8352 38.6319 44.0455 37.9899 44.0455ZM51.6358 52.7727V45.4091H56.3404V58.5H51.8745V56.0114H51.7381C51.454 56.8466 50.9568 57.5 50.2466 57.9716C49.5364 58.4375 48.6926 58.6705 47.7154 58.6705C46.8006 58.6705 45.9995 58.4602 45.312 58.0398C44.6301 57.6193 44.0989 57.0398 43.7182 56.3011C43.3432 55.5625 43.1529 54.7159 43.1472 53.7614V45.4091H47.8517V52.7727C47.8574 53.4205 48.0222 53.929 48.346 54.2983C48.6756 54.6676 49.1358 54.8523 49.7267 54.8523C50.1188 54.8523 50.4568 54.7699 50.7409 54.6051C51.0307 54.4347 51.2523 54.196 51.4057 53.8892C51.5648 53.5767 51.6415 53.2045 51.6358 52.7727ZM63.8457 51.1364V58.5H59.1411V45.4091H63.607V47.8977H63.7434C64.0275 47.0682 64.5275 46.4176 65.2434 45.946C65.965 45.4744 66.8059 45.2386 67.7661 45.2386C68.6923 45.2386 69.4962 45.4517 70.1781 45.8778C70.8656 46.2983 71.3968 46.8778 71.7718 47.6165C72.1525 48.3551 72.34 49.1989 72.3343 50.1477V58.5H67.6298V51.1364C67.6354 50.4886 67.4707 49.9801 67.1354 49.6108C66.8059 49.2415 66.3457 49.0568 65.7548 49.0568C65.3684 49.0568 65.0303 49.142 64.7406 49.3125C64.4565 49.4773 64.2377 49.7159 64.0843 50.0284C63.9309 50.3352 63.8513 50.7045 63.8457 51.1364Z" fill="white"/>
</svg>
